<?xml version="1.0" encoding="UTF-8" standalone="yes"?>
<!DOCTYPE svg PUBLIC "-//W3C//DTD SVG 1.1//EN" "http://www.w3.org/Graphics/SVG/1.1/DTD/svg11.dtd">

<svg width="26" height="26" viewBox="0 0 26 26" xmlns="http://www.w3.org/2000/svg" xmlns:xlink="http://www.w3.org/1999/xlink" version="1.1" baseProfile="full">
    <g transform="scale(1.000000,-1.000000) translate(0,-26)">
        <path d="M 2.000000 1.000000 L 7.682188 1.000000 C 8.234473 1.000000 8.682188 1.447715 8.682188 2.000000 L 8.682188 10.903665 C 8.682188 11.455950 8.234473 11.903665 7.682188 11.903665 L 2.000000 11.903665 C 1.447715 11.903665 1.000000 11.455950 1.000000 10.903665 L 1.000000 2.000000 C 1.000000 1.447715 1.447715 1.000000 2.000000 1.000000 Z" transform="scale(1.000000,1.000000) translate(0.595389,6.321454)" opacity="1.000000"></path>
        <path d="M 1.000000 11.155000 L 13.399999 1.000000 L 13.399999 21.309999 Z" transform="scale(1.000000,1.000000) translate(0.595390,1.845000)" opacity="1.000000"></path>
        <path d="M 23.794884 8.165385 L 24.416684 9.503385 L 24.939184 10.921285 L 25.356084 12.410885 L 25.661584 13.963885 L 25.849284 15.571985 L 25.913184 17.226985 L 25.849284 18.881985 L 25.661584 20.490085 L 25.356084 22.043085 L 24.939184 23.532685 L 24.416684 24.950585 L 23.836884 26.198085 L 22.994484 25.649385 L 23.523484 24.496285 L 24.007984 23.164685 L 24.395184 21.764385 L 24.678984 20.302985 L 24.853684 18.787985 L 24.913184 17.226985 L 24.853684 15.665985 L 24.678984 14.150985 L 24.395184 12.689585 L 24.007984 11.289285 L 23.523484 9.957685 L 22.947484 8.702285 L 22.675184 8.220185 L 23.513784 7.673985 Z" transform="scale(1.000000,1.000000) translate(-0.953284,-3.830785)" opacity="1.000000"></path>
        <path d="M 17.060081 5.304843 L 17.579481 6.213943 L 18.031081 7.186943 L 18.410381 8.217943 L 18.713081 9.300843 L 18.934681 10.429643 L 19.070981 11.598243 L 19.117281 12.800543 L 19.070981 14.002843 L 18.934681 15.171443 L 18.713081 16.300243 L 18.410381 17.383143 L 18.031081 18.414143 L 17.579481 19.387143 L 17.333381 19.817943 L 16.495281 19.272043 L 16.731781 18.850443 L 17.137581 17.960043 L 17.479081 17.015343 L 17.751981 16.021743 L 17.952181 14.984543 L 18.075281 13.909043 L 18.117281 12.800543 L 18.075281 11.692043 L 17.952181 10.616543 L 17.751981 9.579343 L 17.479081 8.585743 L 17.137581 7.641043 L 16.731781 6.750643 L 16.265781 5.919743 L 16.155481 5.757943 L 16.994981 5.211143 Z" transform="scale(1.000000,1.000000) translate(2.550719,0.595657)" opacity="1.000000"></path>
        <path d="M 10.460044 3.121094 L 10.815344 3.633994 L 11.131744 4.189594 L 11.406644 4.784094 L 11.637444 5.413594 L 11.821544 6.074594 L 11.956244 6.763194 L 12.039044 7.475794 L 12.067144 8.208494 L 12.039044 8.941194 L 11.956244 9.653794 L 11.821544 10.342394 L 11.637444 11.003394 L 11.406644 11.632994 L 11.131744 12.227394 L 10.815344 12.782994 L 10.574644 13.130494 L 9.740144 12.586994 L 10.020244 12.168594 L 10.283344 11.691194 L 10.512644 11.179394 L 10.705844 10.636194 L 10.860244 10.064394 L 10.973544 9.467194 L 11.043344 8.847594 L 11.067144 8.208494 L 11.043344 7.569394 L 10.973544 6.949794 L 10.860244 6.352594 L 10.705844 5.780794 L 10.512644 5.237594 L 10.283344 4.725794 L 10.020244 4.248394 L 9.725744 3.808594 L 9.402244 3.409294 L 9.311344 3.316894 L 10.160344 2.763894 Z" transform="scale(1.000000,1.000000) translate(6.092456,5.187706)" opacity="1.000000"></path>
    </g>
</svg>