<?xml version="1.0" encoding="UTF-8" standalone="yes"?>
<!DOCTYPE svg PUBLIC "-//W3C//DTD SVG 1.1//EN" "http://www.w3.org/Graphics/SVG/1.1/DTD/svg11.dtd">

<svg width="26" height="26" viewBox="0 0 26 26" xmlns="http://www.w3.org/2000/svg" xmlns:xlink="http://www.w3.org/1999/xlink" version="1.1" baseProfile="full">
    <g transform="scale(1.000000,-1.000000) translate(0,-26)">
        <path d="M 25.999938 13.499917 L 25.935438 14.778017 L 25.746038 16.019117 L 25.437938 17.217117 L 25.017638 18.365517 L 24.491238 19.458217 L 23.865138 20.488817 L 23.145538 21.451117 L 22.338738 22.338817 L 21.451138 23.145517 L 20.488838 23.865117 L 19.458238 24.491317 L 18.365538 25.017617 L 17.217038 25.438017 L 16.019138 25.746017 L 14.778038 25.935417 L 13.499938 25.999917 L 12.221938 25.935417 L 10.980738 25.746017 L 9.782838 25.438017 L 8.634338 25.017617 L 7.541738 24.491317 L 6.511038 23.865117 L 5.548838 23.145517 L 4.661138 22.338817 L 3.854338 21.451117 L 3.172738 20.539617 L 7.712038 18.269917 L 7.712538 18.270617 L 8.196638 18.803217 L 8.729238 19.287317 L 9.306638 19.719117 L 9.925038 20.094717 L 10.580638 20.410517 L 11.269638 20.662717 L 11.988438 20.847617 L 12.733138 20.961217 L 13.499938 20.999917 L 14.266738 20.961217 L 15.011438 20.847617 L 15.730238 20.662717 L 16.419338 20.410517 L 17.074938 20.094717 L 17.693238 19.719117 L 18.270638 19.287317 L 18.803238 18.803217 L 19.287338 18.270617 L 19.719038 17.693317 L 20.094738 17.074917 L 20.410538 16.419317 L 20.662738 15.730217 L 20.847538 15.011417 L 20.961238 14.266817 L 20.999938 13.499917 L 20.979038 13.086517 L 25.979038 13.086517 Z" transform="scale(1.000000,1.000000) translate(-0.558038,-0.418017)" opacity="1.000000"></path>
        <path d="M 1.000000 1.000000 L 12.567692 7.796213 L 2.503645 14.331881 Z" transform="scale(1.000000,1.000000) translate(-0.952519,9.441555)" opacity="1.000000"></path>
        <path d="M 7.000000 4.000000 C 7.000000 5.656854 5.656854 7.000000 4.000000 7.000000 C 2.343146 7.000000 1.000000 5.656854 1.000000 4.000000 C 1.000000 2.343146 2.343146 1.000000 4.000000 1.000000 C 5.656854 1.000000 7.000000 2.343146 7.000000 4.000000 Z" transform="scale(1.000000,1.000000) translate(8.750606,4.823052)" opacity="1.000000"></path>
    </g>
</svg>