<?xml version="1.0" encoding="UTF-8" standalone="yes"?>
<!DOCTYPE svg PUBLIC "-//W3C//DTD SVG 1.1//EN" "http://www.w3.org/Graphics/SVG/1.1/DTD/svg11.dtd">

<svg width="26" height="26" viewBox="0 0 26 26" xmlns="http://www.w3.org/2000/svg" xmlns:xlink="http://www.w3.org/1999/xlink" version="1.1" baseProfile="full">
    <g transform="scale(1.000000,-1.000000) translate(0,-26)">
        <path d="M 5.999919 13.499917 L 6.038719 14.266817 L 6.152319 15.011417 L 6.337119 15.730217 L 6.589319 16.419317 L 6.905119 17.074917 L 7.280819 17.693317 L 7.712619 18.270617 L 8.196619 18.803217 L 8.729219 19.287317 L 9.306619 19.719117 L 9.925019 20.094717 L 10.580619 20.410517 L 11.269719 20.662717 L 11.988419 20.847617 L 12.733119 20.961217 L 13.499919 20.999917 L 14.266819 20.961217 L 15.011419 20.847617 L 15.730219 20.662717 L 16.419319 20.410517 L 17.074919 20.094717 L 17.693319 19.719117 L 18.270619 19.287317 L 18.803219 18.803217 L 19.287319 18.270617 L 19.287819 18.269917 L 23.827119 20.539617 L 23.145519 21.451117 L 22.338819 22.338817 L 21.451119 23.145517 L 20.488819 23.865117 L 19.458219 24.491317 L 18.365519 25.017617 L 17.217019 25.438017 L 16.019119 25.746017 L 14.778019 25.935417 L 13.499919 25.999917 L 12.221919 25.935417 L 10.980719 25.746017 L 9.782819 25.438017 L 8.634419 25.017617 L 7.541719 24.491317 L 6.511119 23.865117 L 5.548819 23.145517 L 4.661119 22.338817 L 3.854319 21.451117 L 3.134719 20.488817 L 2.508519 19.458217 L 1.982219 18.365517 L 1.561819 17.217117 L 1.253919 16.019117 L 1.064519 14.778017 L 0.999919 13.499917 L 1.020819 13.086517 L 6.020819 13.086517 Z" transform="scale(1.000000,1.000000) translate(-0.952519,-0.418017)" opacity="1.000000"></path>
        <path d="M 12.567692 1.000000 L 1.000000 7.796213 L 11.064047 14.331881 Z" transform="scale(1.000000,1.000000) translate(12.874270,9.441555)" opacity="1.000000"></path>
        <path d="M 1.000000 4.000000 C 1.000000 5.656854 2.343146 7.000000 4.000000 7.000000 C 5.656854 7.000000 7.000000 5.656854 7.000000 4.000000 C 7.000000 2.343146 5.656854 1.000000 4.000000 1.000000 C 2.343146 1.000000 1.000000 2.343146 1.000000 4.000000 Z" transform="scale(1.000000,1.000000) translate(8.738837,4.823052)" opacity="1.000000"></path>
    </g>
</svg>