<?xml version="1.0" encoding="UTF-8" standalone="yes"?>
<!DOCTYPE svg PUBLIC "-//W3C//DTD SVG 1.1//EN" "http://www.w3.org/Graphics/SVG/1.1/DTD/svg11.dtd">

<svg width="26" height="26" viewBox="0 0 26 26" xmlns="http://www.w3.org/2000/svg" xmlns:xlink="http://www.w3.org/1999/xlink" version="1.1" baseProfile="full">
    <g transform="scale(1.000000,-1.000000) translate(0,-26)">
        <path d="M 4.000000 1.000000 L 6.000000 1.000000 C 7.656854 1.000000 9.000000 2.343146 9.000000 4.000000 L 9.000000 22.000000 C 9.000000 23.656854 7.656854 25.000000 6.000000 25.000000 L 4.000000 25.000000 C 2.343146 25.000000 1.000000 23.656854 1.000000 22.000000 L 1.000000 4.000000 C 1.000000 2.343146 2.343146 1.000000 4.000000 1.000000 Z" transform="scale(1.000000,1.000000) translate(1.110248,0.000000)" opacity="1.000000"></path>
        <path d="M 4.000000 1.000000 L 6.000000 1.000000 C 7.656854 1.000000 9.000000 2.343146 9.000000 4.000000 L 9.000000 22.000000 C 9.000000 23.656854 7.656854 25.000000 6.000000 25.000000 L 4.000000 25.000000 C 2.343146 25.000000 1.000000 23.656854 1.000000 22.000000 L 1.000000 4.000000 C 1.000000 2.343146 2.343146 1.000000 4.000000 1.000000 Z" transform="scale(1.000000,1.000000) translate(14.889752,-0.000131)" opacity="1.000000"></path>
    </g>
</svg>