<?xml version="1.0" encoding="UTF-8" standalone="yes"?>
<!DOCTYPE svg PUBLIC "-//W3C//DTD SVG 1.1//EN" "http://www.w3.org/Graphics/SVG/1.1/DTD/svg11.dtd">

<svg width="26" height="26" viewBox="0 0 26 26" xmlns="http://www.w3.org/2000/svg" xmlns:xlink="http://www.w3.org/1999/xlink" version="1.1" baseProfile="full">
    <g transform="scale(1.000000,-1.000000) translate(0,-26)">
        <path d="M 14.778046 1.064500 L 16.019146 1.253900 L 17.217046 1.561900 L 18.365546 1.982300 L 19.458146 2.508600 L 20.488846 3.134800 L 21.451146 3.854300 L 22.338746 4.661100 L 23.145546 5.548800 L 23.865146 6.511100 L 24.491246 7.541700 L 25.017646 8.634400 L 25.437946 9.782800 L 25.745946 10.980800 L 25.935446 12.221900 L 25.999946 13.500000 L 25.935446 14.778000 L 25.745946 16.019100 L 25.437946 17.217100 L 25.017646 18.365500 L 24.491246 19.458200 L 23.865146 20.488800 L 23.145546 21.451100 L 22.338746 22.338800 L 21.451146 23.145600 L 20.488846 23.865100 L 19.458146 24.491300 L 18.365546 25.017600 L 17.217046 25.438000 L 16.019146 25.746000 L 14.778046 25.935400 L 13.499946 26.000000 L 12.221946 25.935400 L 10.980746 25.746000 L 9.782846 25.438000 L 8.634346 25.017600 L 7.541746 24.491300 L 6.511046 23.865100 L 5.548746 23.145600 L 4.661146 22.338800 L 3.854346 21.451100 L 3.172746 20.539700 L 7.712046 18.270000 L 7.712546 18.270600 L 8.196646 18.803300 L 8.729246 19.287300 L 9.306646 19.719100 L 9.925046 20.094700 L 10.580646 20.410600 L 11.269646 20.662800 L 11.988446 20.847600 L 12.733146 20.961200 L 13.499946 21.000000 L 14.266746 20.961200 L 15.011446 20.847600 L 15.730246 20.662800 L 16.419246 20.410600 L 17.074846 20.094700 L 17.693246 19.719100 L 18.270646 19.287300 L 18.803246 18.803300 L 19.287346 18.270600 L 19.719046 17.693300 L 20.094746 17.074900 L 20.410546 16.419300 L 20.662746 15.730200 L 20.847546 15.011500 L 20.961246 14.266800 L 20.999946 13.500000 L 20.961246 12.733100 L 20.847546 11.988400 L 20.662746 11.269700 L 20.410546 10.580600 L 20.094746 9.925000 L 19.719046 9.306600 L 19.287346 8.729300 L 18.803246 8.196600 L 18.270646 7.712600 L 17.693246 7.280800 L 17.074846 6.905200 L 16.419246 6.589300 L 15.730246 6.337100 L 15.011446 6.152300 L 14.266746 6.038700 L 13.499946 6.000000 L 12.733146 6.038700 L 11.988446 6.152300 L 11.269646 6.337100 L 10.580646 6.589300 L 9.925046 6.905200 L 9.306646 7.280800 L 8.729246 7.712600 L 8.355846 8.051900 L 3.717046 5.732500 L 3.854346 5.548800 L 4.661146 4.661100 L 5.548746 3.854300 L 6.511046 3.134800 L 7.541746 2.508600 L 8.634346 1.982300 L 9.782846 1.561900 L 10.980746 1.253900 L 12.221946 1.064500 L 13.499946 1.000000 Z" transform="scale(1.000000,1.000000) translate(-0.626046,-0.500000)" opacity="1.000000"></path>
        <path d="M 1.489666 2.861593 C 0.695194 0.907229 0.695194 0.907229 2.799411 1.058885 L 9.688102 1.555370 C 11.792319 1.707026 11.792319 1.707026 10.536451 3.435580 L 6.140915 9.485517 C 4.885047 11.214070 4.885047 11.214070 4.090575 9.259705 Z" transform="scale(1.000000,1.000000) translate(-0.662976,15.099822)" opacity="1.000000"></path>
    </g>
</svg>